<svg id="ae2c63be-6c7f-4188-9e99-d47b8f38dc7a" data-name="b797c7b6-59d2-4fe7-92cc-36dde4edfdf1" xmlns="http://www.w3.org/2000/svg" width="1000" height="1000" viewBox="0 0 1000 1000"><title>FRAN3158</title><path d="M206.93,385.08c-1.87-118.54,50-234.79,157.69-238.52,99.4-3.43,127.26,80.09,159.24,123.82,12.89,17.61,26.38,32.94,42.71,34.8,21.45,2.45,36.31-24.35,24.16-58.26-7.64-21.32-28.07-78.51-34.32-105.94-5.73-25.17-8.36-51.19-.18-71.16-21.74-22.36-26.54-46.16-26.85-59.5,0-1.64,0-3.12.06-4.42.38-6.91,3.81-6.47,6.82-5,19.5,9.43,43.33,10.37,78,21.21,4.47,1.41,6.23-1.12,7.08-6.91,1-6.76,5.91-5.93,8.1-4.7C654,24.33,678.2,45.24,678.92,62.83,690.07,66,706.79,72.05,720.54,83c1.08.87,1.34,2.34-.28,2.55-25.3,3.32-35.29,14.83-39,20.06a3.22,3.22,0,0,0-.1,3c5.63,12.25,24.9,26.88,24.37,37.11a24.53,24.53,0,0,1-2.9,10.35h0c9,16,17.55,22,36.6,47.63,6.91,9.28,12.13,16.76,15.39,24.38a48,48,0,0,1,3.66,24.31s34.46,39.19,35,85.78c.48,40.77-24.59,90.85-44.75,122.84-25,39.69-39.66,70.84-46.66,92.81-10.52,33.08-19.15,65.55-22.55,85.26q-3.86,22.35-1.52,33c1.64,7.33,20.15,18,44.5,27,4.11,1.51,5.38,10.12,5.38,10.24h0c-16.53-3.93-62.32-15.28-77.6-13.75a59.77,59.77,0,0,0-13.44,2.69c-5.78,1.94-9.5,4.45-14.87,6.66h0c-.06-.24-1.63-8.27.72-11.39,1-1.29,7.4-6.29,10.8-10.66,5-6.45,10-15.74,14.65-28.1-.52-10.14-7.7-19.59-6.79-27.36.84-7,4.76,5.67,14.08,4.22,6.34-23,10.18-50.68,11.71-63.16,4.33-35,9.74-60.69-2.26-61.73-43.38-3.77-61.36,63-70,97.69-8.07,32.57-11.48,51.07-11.13,62.31.24,7.46,2.13,11.73,5.38,14.78,7.59,7.1,14.92,11.13,17.05,13.6,1.52,1.76,3.56,8.64,3.86,12.49h0c-.17-.1-10.65-6-28.16-7.52a170.06,170.06,0,0,0-41,1.73c-15.73,2.64-36.57,7.33-36.57,7.33s.5-8.54,3.24-9.89c11.17-5.49,22.82-10.51,32.66-18.36,10.66-8.5,15.75-19.6,18-24.08-.32-10.3-8.74-19.43-6.42-28.33.94-3.55,6.41,8.32,14.71,5.5h0c9.38-41.07,9.75-81.1-.92-112.51-6.89-20.2-13.4-29.84-21.5-34.93-5-3.15-11.32-5.8-20-1-7.82,4.3-21.61,20.18-23.54,22.31C472.1,538.79,421,548.26,395,529.62h0a140,140,0,0,0,44.63,29.15S413,583,370.76,574.33c-9.4-1.93-30.89-7.58-56.65-22.39h0a75.55,75.55,0,0,0,15.14,21.21c12,11.65,19,13.22,19,13.22C246.78,586.37,208,456.77,206.93,385.08Z" fill="#e21f20"/><path d="M594.84,52.4C576.7,62.68,570.43,79.53,576.67,97a39.09,39.09,0,0,0,9.42,15.39c-19.32-14.85-36-47.46-11.57-64.78,10.83-7.65,21.62-9.57,34.31-10,24.35-.85,48.14,13.72,59.54,23C654.34,50.6,613.9,41.6,594.84,52.4Z" fill="#b60718"/><path d="M622.72,74.54c-.73,4.83,3.22,9.39,8.84,10.21s10.73-2.41,11.45-7.24a7.63,7.63,0,0,0-.62-4.29,33.45,33.45,0,0,1,4.29,1.25l-1.77-3.3a41.77,41.77,0,0,0-12.86-4.61c-11.57-1.7-16,5.6-16,5.6a62.23,62.23,0,0,1,7.94-.78A7.53,7.53,0,0,0,622.72,74.54Z" fill="#b60718"/><path d="M559.3,415.9c-46.61-7.68-64.33-21.49-108.64-21.7,27.43-3.21,46.14-1.48,69.34.3,39.23,3,80.42-3.1,107.59-19.16,25.38-15,38.26-39,33.95-65.09C710.59,365.62,654.37,431.56,559.3,415.9Z" fill="#b60718"/><path d="M709.12,261.89c2-43-24.32-52-32.39-77,18.3,20.21,39.42,29.89,50.7,48.61,22.62,37.54,14.41,62.31,14.41,62.31C733.84,273.28,709.12,261.89,709.12,261.89Z" fill="#b60718"/><path d="M596.58,160.85c3.41,20.74,10.38,29.78,41.69,59.43,26.34,25,30.18,50.3,24.29,66.39,14.6-35,7.51-65.49-17.55-100-20.67-28.47-25.46-48.45-24.85-65.95h0a48.72,48.72,0,0,1-22-1.24h0c-1.56,1.7-24.79,27.88-13.36,72.59A350.12,350.12,0,0,0,597,230.38h0c16,41.91,11.47,62.84,2.36,73.52,40.82-12.69,37-58.07,16.39-91.08C598,184.28,596.76,175.93,596.58,160.85Z" fill="#b60718"/><path d="M496.37,426.85s65.2,33.18,141,15c101.18-24.18,86.5-131.2,57.19-146.23C735.92,298,768.16,387.78,715,441c-52.94,53.06-143,32.78-185.8,6.48C508.31,434.67,496.37,426.85,496.37,426.85Z" fill="#b60718"/><path d="M320.44,305.75C283.13,324.57,242,376,255.86,459.25a125.81,125.81,0,0,0,6.72,24c.29.65.54,1.32.81,2,0,0-35.36-45.79-26.24-139.73C245.47,260,286.57,189.43,367,184.92c78.79-4.41,115.15,75,115.15,75s-43.27-62.28-121.22-49c-49.08,8.33-75,55.53-85,94.07,20.38-31.71,50.38-51.71,84-54.65,70.06-6.12,105.7,41.47,139.91,65.29,44.48,30.95,89.69,19.95,107.28,4.74-3.39,11.13-30.7,42.74-76.26,50.46-14.51,2.46-34.13,2.84-61-.27-47.45-5.47-113.75-12.35-140.78,43.6S342.53,532.84,398,553c-64-8.45-111.82-66.19-105.16-134.85,9.48-97.4,106-95.64,157.43-76.25,24.41,9.19,59.52,13.76,74.3,6.45,0,0-36-.38-74.34-26.9C416,297.71,372.69,279.4,320.44,305.75Z" fill="#b60718"/><path d="M525.87,472.7c-37.55-7.09-51.64-14.63-66.46-24.08a83.74,83.74,0,0,0-48.85-13.31c27.56-29.05,65.22-15,66.12-14.59-15.69-7.7-30.39-16.33-53.42-13.8-25.34,2.79-35.79,22.25-33.7,37.81,5.9,43.91,76.36,25.7,76.36,25.7s-25.08,32.68-64.38,26.26c-14.37-2.34-24.14-9.08-30.29-17.68h0C384,498.53,403,510.45,436,509.86c31.73-.55,44.73-13.7,66.95-29.15C509.7,476,518.51,472.29,525.87,472.7Z" fill="#b60718"/><path d="M236.54,845.3v29h-23c-.63,0-.75-.12-.75-.74V802.47l-6.37-8.36v-1.5c0-.63.12-.75.75-.75h76.92c.62,0,.75.12.75.75v18h-48.3v16h41.59c.62,0,.75.13.75.75v18Z" fill="#fff"/><path d="M327.34,874.27h-23c-.63,0-.76-.12-.76-.74V802.47l-6.36-8.36v-1.5c0-.63.12-.75.75-.75h46.45c25.35,0,40.83,11.11,40.83,29.22,0,11-6.49,19-18.36,23.22l26.48,30H366.68c-.5,0-.75-.12-1.38-.74l-28.34-32v-6.74c0-.63.12-.76.75-.76h.5c16,0,23.35-3.74,23.35-11.73s-7.37-11.74-23.35-11.74H327.34Z" fill="#fff"/><path d="M418.76,874.27h-23l42.84-82.41h20l42.84,82.41H477.2a1.42,1.42,0,0,1-1.37-.74l-6.62-13H426.75l-6.61,13A1.45,1.45,0,0,1,418.76,874.27Zm41.58-31.21L448,818.83l-12.36,24.23Z" fill="#fff"/><path d="M535.16,825.82v48.45H513.43c-.63,0-.75-.12-.75-.74V802.47l-6.37-8.36v-1.5c0-.63.13-.75.75-.75h26.85l45.45,48.45V791.86h21.73c.63,0,.75.12.75.75v81.66h-20.1a2.33,2.33,0,0,1-1.88-.74Z" fill="#fff"/><path d="M618.71,833.07c0-25.1,22.23-43.21,53.07-43.21,11.12,0,21.23,1.62,29.72,4.75v19.1a75.78,75.78,0,0,0-28.5-5.37c-17.73,0-30,10.12-30,24.73s12.24,24.72,30,24.72c10.37,0,19.11-1.75,29.72-5.87V871c-8.24,3.49-18.73,5.24-31,5.24C640.94,876.27,618.71,858.17,618.71,833.07Z" fill="#fff"/><path d="M787.55,841.81H745.22v13.73H792.8c.62,0,.75.13.75.75v18h-71.3c-.63,0-.76-.12-.76-.74V802.47l-6.36-8.36v-1.5c0-.63.12-.75.75-.75H792.8c.62,0,.75.12.75.75v18H745.22V823.1h41.59c.62,0,.74.12.74.75Z" fill="#fff"/><path d="M242.39,997.67H215.54c-.72,0-.87-.15-.87-.88v-83L207.23,904v-1.75c0-.73.15-.88.88-.88h54.27c29.62,0,47.71,13,47.71,34.14,0,12.84-7.59,22.18-21.45,27.14l30.94,35H288.35c-.58,0-.87-.15-1.6-.88l-33.12-37.35v-7.88c0-.73.14-.87.87-.87h.59c18.67,0,27.28-4.38,27.28-13.72s-8.61-13.71-27.28-13.71h-12.7Z" fill="#fff"/><path d="M355.77,901.37c.73,0,.87.15.87.88v46.39c0,19.7,8.61,29.77,25.54,29.77s25.53-10.51,25.53-31.23V901.37h26.85c.73,0,.87.15.87.88V950.1c0,32.83-18.24,49.9-53.25,49.9s-53.26-17.07-53.26-49.9V913.77L321.48,904v-1.75c0-.73.15-.88.88-.88Z" fill="#fff"/><path d="M515,1000c-36,0-62-21.15-62-50.48S479,899,515,899c15,0,28.3,2.48,39.1,7.29v22.32c-13.57-5.69-23.93-8-37.64-8-20.72,0-35,11.82-35,28.89s14.3,28.89,35,28.89a84.89,84.89,0,0,0,18.67-1.9v-16.8L527.65,950v-1.74c0-.73.15-.88.88-.88h32.1v44.79Q540.49,1000,515,1000Z" fill="#fff"/><path d="M634.6,997.67H584.85c-.73,0-.87-.15-.87-.88v-83L576.54,904v-1.75c0-.73.14-.88.87-.88h56.47c24.65,0,39.68,9.48,39.68,25,0,8.61-4.67,15.47-13.42,19.84,12.55,4.23,19.26,12.26,19.26,23.2C679.4,987.45,663.35,997.67,634.6,997.67Zm-23.49-59.53H629.5c11.67,0,17.07-2.63,17.07-8.17s-5.4-8.17-17.07-8.17H611.11Zm0,39.1h20.58c13.71,0,20-2.92,20-9.34s-6.28-9.33-20-9.33H611.11Z" fill="#fff"/><path d="M749.88,997.67H723c-.73,0-.88-.15-.88-.88V962.65l-42.74-61.28h29.76a2,2,0,0,1,1.61.88l26,38.37,26-38.37a2,2,0,0,1,1.6-.88h28.3l-42.74,61.28Z" fill="#fff"/></svg>